custom-analysis
version=1
nRows=6
nColumns=98
inDegrees=no

This file contains tibia displacement and acting force.

Units are S.I. units (seconds, meters, Newtons, ...)
Angles are in degrees.

endheader
time	APT	SIT	knee_angle	aACL_R_force	pACL_R_force	aPCL_R_force	pPCL_R_force	aMCL_R_force	mMCL_R_force	pMCL_R_force	aLCL_R_force	mLCL_R_force	pLCL_R_force	aPCL_L_force	pPCL_L_force	aMCL_L_force	aLCL_L_force	aACL_R_length	pACL_R_length	aPCL_R_length	pPCL_R_length	aMCL_R_length	mMCL_R_length	pMCL_R_length	aLCL_R_length	mLCL_R_length	pLCL_R_length	aPCL_L_length	pPCL_L_length	aMCL_L_length	aLCL_L_length	aACL_R_strain	pACL_R_strain	aPCL_R_strain	pPCL_R_strain	aMCL_R_strain	mMCL_R_strain	pMCL_R_strain	aLCL_R_strain	mLCL_R_strain	pLCL_R_strain	aPCL_L_strain	pPCL_L_strain	aMCL_L_strain	aLCL_L_strain	femur_lat_meniscii_r.femur_lat_r.force.X	femur_lat_meniscii_r.femur_lat_r.force.Y	femur_lat_meniscii_r.femur_lat_r.force.Z	femur_lat_meniscii_r.femur_lat_r.torque.X	femur_lat_meniscii_r.femur_lat_r.torque.Y	femur_lat_meniscii_r.femur_lat_r.torque.Z	femur_lat_meniscii_r.meniscus_lat_r.force.X	femur_lat_meniscii_r.meniscus_lat_r.force.Y	femur_lat_meniscii_r.meniscus_lat_r.force.Z	femur_lat_meniscii_r.meniscus_lat_r.torque.X	femur_lat_meniscii_r.meniscus_lat_r.torque.Y	femur_lat_meniscii_r.meniscus_lat_r.torque.Z	femur_med_meniscii_r.femur_med_r.force.X	femur_med_meniscii_r.femur_med_r.force.Y	femur_med_meniscii_r.femur_med_r.force.Z	femur_med_meniscii_r.femur_med_r.torque.X	femur_med_meniscii_r.femur_med_r.torque.Y	femur_med_meniscii_r.femur_med_r.torque.Z	femur_med_meniscii_r.meniscus_med_r.force.X	femur_med_meniscii_r.meniscus_med_r.force.Y	femur_med_meniscii_r.meniscus_med_r.force.Z	femur_med_meniscii_r.meniscus_med_r.torque.X	femur_med_meniscii_r.meniscus_med_r.torque.Y	femur_med_meniscii_r.meniscus_med_r.torque.Z	femur_med_tibia_r.tibia_upper_r.force.X	femur_med_tibia_r.tibia_upper_r.force.Y	femur_med_tibia_r.tibia_upper_r.force.Z	femur_med_tibia_r.tibia_upper_r.torque.X	femur_med_tibia_r.tibia_upper_r.torque.Y	femur_med_tibia_r.tibia_upper_r.torque.Z	femur_med_tibia_r.femur_med_r.force.X	femur_med_tibia_r.femur_med_r.force.Y	femur_med_tibia_r.femur_med_r.force.Z	femur_med_tibia_r.femur_med_r.torque.X	femur_med_tibia_r.femur_med_r.torque.Y	femur_med_tibia_r.femur_med_r.torque.Z	femur_lat_tibia_r.tibia_upper_r.force.X	femur_lat_tibia_r.tibia_upper_r.force.Y	femur_lat_tibia_r.tibia_upper_r.force.Z	femur_lat_tibia_r.tibia_upper_r.torque.X	femur_lat_tibia_r.tibia_upper_r.torque.Y	femur_lat_tibia_r.tibia_upper_r.torque.Z	femur_lat_tibia_r.femur_lat_r.force.X	femur_lat_tibia_r.femur_lat_r.force.Y	femur_lat_tibia_r.femur_lat_r.force.Z	femur_lat_tibia_r.femur_lat_r.torque.X	femur_lat_tibia_r.femur_lat_r.torque.Y	femur_lat_tibia_r.femur_lat_r.torque.Z	femur_lat_meniscii_force_r	femur_med_meniscii_force_r	femur_lat_tibia_force_r	femur_med_tibia_force_r
      0.10336781	      0.00773481	      0.00682820	     25.91153745	      5.65714346	    -11.58165053	      0.00000000	     50.39396152	      0.00000000	      0.00000000	    -41.48756741	      0.00000000	      0.00000000	      0.00000000	      0.00000000	      0.00000000	      0.00000001	      0.00000000	      0.03225908	      0.02531995	      0.03086536	      0.03001258	      0.05706089	      0.05949264	      0.05901944	      0.05380242	      0.05082287	      0.04739845	      0.01525851	      0.01651186	      0.06550154	      0.04489616	      0.04043101	      0.01042556	     -0.00739473	      0.00417481	     -0.04941297	     -0.00503163	      0.00496258	     -0.03885123	     -0.09758283	     -0.09445926	      0.00000079	     -0.32847694	      0.00000060	     -0.00000086	     91.78221094	    358.73943590	     45.26839661	    -27.26874266	      2.41879910	     36.51001337	    -91.78221094	   -358.73943590	    -45.26839661	     10.84403313	     -3.05050670	      1.79738680	    -43.84336697	     85.95017037	      9.65610732	     -1.86469756	      1.08098685	    -17.95996409	     43.84336697	    -85.95017037	     -9.65610732	     -1.61576220	     -1.06061082	      1.97563495	    -77.37597549	   -449.85147250	     92.32587414	    -10.35160141	      1.85051993	      0.37633961	     77.37597549	    449.85147250	    -92.32587414	     46.74004493	     -1.20925433	     33.24441530	    -25.92502240	    -98.18695203	    -23.62020132	      3.35265042	     -0.88693302	      0.00710657	     25.92502240	     98.18695203	     23.62020132	    -12.14043602	      0.61104533	     10.78501610	    373.05118261	     96.96861876	    104.26264070	    465.70103708
      0.10416473	      0.00779066	      0.00693081	     26.26141304	      5.64731696	    -11.48299613	      0.00000000	     51.53348582	      0.00000000	      0.00000000	    -40.95202624	      0.00000000	      0.00000000	      0.00000000	      0.00000000	      0.00000000	      0.00000001	      0.00000000	      0.03224595	      0.02529578	      0.03092348	      0.03005318	      0.05708548	      0.05948409	      0.05897414	      0.05379374	      0.05079300	      0.04734708	      0.01525851	      0.01651186	      0.06550154	      0.04489616	      0.04000732	      0.00946096	     -0.00552559	      0.00553342	     -0.04900321	     -0.00517460	      0.00419121	     -0.03900618	     -0.09811317	     -0.09544068	      0.00000079	     -0.32847694	      0.00000060	     -0.00000086	     89.26209387	    353.51980854	     46.77653592	    -27.77826737	      2.34362940	     35.43665033	    -89.26209387	   -353.51980854	    -46.77653592	     10.75228802	     -2.98493487	      1.90020496	    -43.26841105	     87.19751939	     10.75095971	     -2.29040403	      1.05930003	    -17.72313052	     43.26841105	    -87.19751939	    -10.75095971	     -1.60845396	     -1.05291244	      1.97994324	    -82.57940578	   -456.41191759	     92.70305461	    -10.47260346	      1.94884532	      0.30595175	     82.57940578	    456.41191759	    -92.70305461	     47.00475359	     -1.30349635	     35.41399541	    -23.91603530	    -88.97705614	    -21.42245335	      3.03454065	     -0.81808671	      0.00998684	     23.91603530	     88.97705614	     21.42245335	    -11.00782634	      0.56528466	      9.94139271	    367.60307499	     97.93439599	     94.59288965	    472.99582779
      0.10541722	      0.00788197	      0.00709372	     26.81561381	      5.30640129	    -11.59317498	      0.00000000	     53.92115293	      0.00000000	      0.00000000	    -40.61217314	      0.00000000	      0.00000000	      0.00000000	      0.00000000	      0.00000000	      0.00000001	      0.00000000	      0.03222575	      0.02525830	      0.03101490	      0.03011642	      0.05712565	      0.05947151	      0.05890377	      0.05378126	      0.05074683	      0.04726691	      0.01525851	      0.01651186	      0.06550154	      0.04489616	      0.03935603	      0.00796537	     -0.00258558	      0.00764917	     -0.04833410	     -0.00538507	      0.00299296	     -0.03922915	     -0.09893300	     -0.09697220	      0.00000079	     -0.32847694	      0.00000060	     -0.00000086	     84.84476087	    351.87386332	     47.66319520	    -28.10829835	      2.21574002	     33.53825104	    -84.84476087	   -351.87386332	    -47.66319520	     10.72050434	     -2.85857876	      2.15934261	    -42.06727404	     89.70808991	     11.86037296	     -2.68869064	      1.02625069	    -17.21354976	     42.06727404	    -89.70808991	    -11.86037296	     -1.63297493	     -1.03734075	      1.96901884	    -89.54026039	   -463.80165927	     94.91035948	    -10.68657926	      2.10212447	      0.22403972	     89.54026039	    463.80165927	    -94.91035948	     48.05428473	     -1.43114244	     38.30828360	    -20.80339015	    -74.95451238	    -18.01115469	      2.54813908	     -0.70992296	      0.01056769	     20.80339015	     74.95451238	     18.01115469	     -9.25540406	      0.49353223	      8.63703511	    365.08304440	     99.78910455	     79.84586189	    481.80640688
      0.10627967	      0.00794697	      0.00720732	     27.20018492	      4.93673282	    -11.76951462	      0.00000000	     56.08962812	      0.00000000	      0.00000000	    -40.54569217	      0.00000000	      0.00000000	      0.00000000	      0.00000000	      0.00000000	      0.00000001	      0.00000000	      0.03221181	      0.02523253	      0.03107780	      0.03015944	      0.05715406	      0.05946316	      0.05885562	      0.05377316	      0.05071527	      0.04721182	      0.01525851	      0.01651186	      0.06550154	      0.04489616	      0.03890619	      0.00693699	     -0.00056293	      0.00908879	     -0.04786084	     -0.00552472	      0.00217309	     -0.03937383	     -0.09949348	     -0.09802483	      0.00000079	     -0.32847694	      0.00000060	     -0.00000086	     82.68274484	    350.31798360	     47.81502613	    -28.13046382	      2.14702192	     32.59873080	    -82.68274484	   -350.31798360	    -47.81502613	     10.66797570	     -2.78928435	      2.30332124	    -40.43129749	     90.75483011	     12.54761725	     -2.94465869	      0.98981288	    -16.52642772	     40.43129749	    -90.75483011	    -12.54761725	     -1.64057294	     -1.01428012	      1.92872840	    -93.53005649	   -467.26194135	     95.78293376	    -10.78208991	      2.19144128	      0.19027678	     93.53005649	    467.26194135	    -95.78293376	     48.47382113	     -1.50584772	     39.95948032	    -19.17643524	    -67.64602065	    -16.33089254	      2.29896187	     -0.65427408	      0.00983280	     19.17643524	     67.64602065	     16.33089254	     -8.38374709	      0.45593128	      7.95676119	    363.10522256	    100.14275662	     72.18322401	    486.06168714
      0.10714211	      0.00801440	      0.00732278	     27.58721514	      5.03620893	    -11.53072869	     25.34938340	     55.31173349	      0.00000000	      0.00000000	    -41.77017691	      0.00000000	      0.00000000	      0.00000000	      0.00000000	      0.00000000	      0.00000001	      0.00000000	      0.03219786	      0.02520681	      0.03113959	      0.03020100	      0.05718233	      0.05945431	      0.05880698	      0.05376458	      0.05068301	      0.04715592	      0.01525851	      0.01651186	      0.06550154	      0.04489616	      0.03845634	      0.00591072	      0.00142433	      0.01047916	     -0.04738979	     -0.00567271	      0.00134486	     -0.03952717	     -0.10006618	     -0.09909273	      0.00000079	     -0.32847694	      0.00000060	     -0.00000086	     87.91850088	    357.42579786	     47.48770374	    -28.17058278	      2.26510309	     34.72320713	    -87.91850088	   -357.42579786	    -47.48770374	     10.83663788	     -2.91953634	      2.29449720	    -39.26240154	     91.23318661	     13.42259653	     -3.29177327	      0.95849179	    -16.04838862	     39.26240154	    -91.23318661	    -13.42259653	     -1.63009414	     -0.99713524	      1.91410625	    -99.95297381	   -473.94167356	     98.67383726	    -11.00737058	      2.33427385	      0.09041289	     99.95297381	    473.94167356	    -98.67383726	     49.80216267	     -1.61954541	     42.64020904	    -17.82972740	    -61.53811016	    -14.81711357	      2.08648238	     -0.60686404	      0.00880695	     17.82972740	     61.53811016	     14.81711357	     -7.60911046	      0.42458528	      7.39371739	    371.13063169	    100.22572829	     65.76005653	    494.31551975
      0.10800456	      0.00808634	      0.00744039	     27.97702150	      5.19931582	    -11.20918369	     25.62803556	     57.35244454	      0.00000000	      0.00000000	    -41.50831644	      0.00000000	      0.00000000	      0.00000000	      0.00000000	      0.00000000	      0.00000001	      0.00000000	      0.03218503	      0.02518212	      0.03119896	      0.03023978	      0.05721017	      0.05944460	      0.05875751	      0.05375500	      0.05064960	      0.04709872	      0.01525851	      0.01651186	      0.06550154	      0.04489616	      0.03804245	      0.00492526	      0.00333349	      0.01177684	     -0.04692606	     -0.00583507	      0.00050256	     -0.03969839	     -0.10065939	     -0.10018549	      0.00000079	     -0.32847694	      0.00000060	     -0.00000086	     88.71158308	    354.35037060	     47.09951603	    -27.92500580	      2.27874646	     35.02858385	    -88.71158308	   -354.35037060	    -47.09951603	     10.71978975	     -2.93468613	      2.31223337	    -38.20847426	     90.96861796	     14.37579886	     -3.69064191	      0.93036387	    -15.62282348	     38.20847426	    -90.96861796	    -14.37579886	     -1.59938635	     -0.98386566	      1.90136515	   -107.86421598	   -483.49238636	    100.16020914	    -11.21641900	      2.48893728	     -0.03417187	    107.86421598	    483.49238636	   -100.16020914	     50.58425156	     -1.76035134	     45.94707667	    -16.99423693	    -56.90064015	    -13.78648147	      1.92858802	     -0.57670226	      0.00352590	     16.99423693	     56.90064015	     13.78648147	     -7.06993415	      0.40486491	      7.04329816	    368.31005216	     99.70877871	     60.96354656	    505.40245770
